PathFileType	4	(X/Y/Z)	69_2_87_p0_0-259_filt_butterworth.trc
DataRate	CameraRate	NumFrames	NumMarkers	Units	OrigDataRate	OrigDataStartFrame	OrigNumFrames
59.0	59.0	5	27	m	59.0	161	259
Frame#	Time	RHip			RKnee			RAnkle			RBigToe			RSmallToe			RHeel			LHip			LKnee			LAnkle			LBigToe			LSmallToe			LHeel			Neck			Head			Nose			RShoulder			RElbow			RWrist			RThumb			RIndex			RPinky			LShoulder			LElbow			LWrist			LThumb			LIndex			LPinky			
		X1	Y1	Z1	X2	Y2	Z2	X3	Y3	Z3	X4	Y4	Z4	X5	Y5	Z5	X6	Y6	Z6	X7	Y7	Z7	X8	Y8	Z8	X9	Y9	Z9	X10	Y10	Z10	X11	Y11	Z11	X12	Y12	Z12	X13	Y13	Z13	X14	Y14	Z14	X15	Y15	Z15	X16	Y16	Z16	X17	Y17	Z17	X18	Y18	Z18	X19	Y19	Z19	X20	Y20	Z20	X21	Y21	Z21	X22	Y22	Z22	X23	Y23	Z23	X24	Y24	Z24	X25	Y25	Z25	X26	Y26	Z26	X27	Y27	Z27	
161	2.7288135593220337	0.2961153028678042	0.5447806066335285	0.47834620933458055	0.24552606609046998	0.5449110354060236	0.9024085728075952	0.2210700392415369	0.617433446612097	1.3322744680411105	0.258131224121153	0.4551413772725212	1.3467831203275877	0.3064790796152994	0.47609438872111853	1.3349367327084916	0.17745471225288323	0.6933163630204159	1.3936349343536307	0.12472159249493901	0.45870491658370505	0.46491315995766724	0.06172440299739503	0.5118692484332534	0.9037389563405039	0.03609975870781284	0.5823125289700872	1.3333224479019277	0.11581990032176465	0.4039239291885888	1.3251604696386712	0.061153075199055947	0.4066095704670763	1.3164297938513627	0.03696697441381436	0.6038639343141042	1.388527733151985	0.2178662107687213	0.5136055614136624	-0.011882410751346929	0.2516062231689604	0.4721965080706481	-0.24957471761026495	0.2659765601439387	0.41808763780825803	-0.1296420025866586	0.35654655740819535	0.5427762342579067	0.07326997970361791	0.3720493072728081	0.6109170653785606	0.34247247105187195	0.42990053336429473	0.4948082538041867	0.5466368014833102	0.412340788356407	0.4690227394393545	0.661434315108971	0.43169319615780505	0.4612538170926351	0.6889900325691328	0.42490708510723085	0.5533536522260274	0.6921264794046025	0.06512661757123066	0.48730183069623767	0.061321225639544334	0.042335461439454845	0.43075778071096593	0.31563423920088285	0.02075683804496989	0.3648364995345766	0.5137269272115654	0.03759173156914039	0.3631242882888423	0.608159415029438	0.02992299021830444	0.3127795726714235	0.6261951032893054	-0.023634060836107994	0.3645019363801447	0.645607908473873
162	2.7457627118644066	0.29612446116266333	0.5447877934930603	0.47836726477439884	0.24553113863109088	0.5449616315553318	0.9024220990145716	0.22151500104867722	0.6177616685705576	1.33237038627765	0.2581475436477702	0.45523185594864723	1.3467647296232734	0.30651331579300345	0.4759331508244452	1.3348312941027665	0.17746461613451597	0.6932967725863493	1.3935834211177265	0.12471397203837736	0.4583404276822315	0.46343283016064307	0.061791659243374826	0.5113862245154268	0.9012141785738534	0.03662085703593369	0.5780132067430427	1.3323894745592537	0.11523903690392062	0.4040644420125327	1.327243472450918	0.061084508655254235	0.4066857657503581	1.316418362974132	0.037493075051302	0.599390230661597	1.3840852284787133	0.2178858484187982	0.5135682368306738	-0.01187237121656233	0.25162456306860004	0.4721594500478958	-0.24962544976611714	0.2661331767338151	0.41664078909127655	-0.130443936722002	0.3565258139445848	0.5428189882762187	0.07325978159389868	0.37212391194096306	0.610739964051944	0.34252434740908466	0.42996360780819287	0.49459544983246906	0.5466108609118245	0.4134156026931729	0.4705499993464217	0.6622773471773807	0.4316656563891442	0.4612117436210353	0.6902256467244687	0.42532427508835036	0.5529393885395427	0.6919060700905347	0.06524937314095058	0.48734131476206904	0.060121913361347215	0.04233211105538232	0.4307688959185425	0.315632074422723	0.020791687272737523	0.36482154661628846	0.5136903696339012	0.03781684803764937	0.36320919530560053	0.6081403502773289	0.02997477401837535	0.31267786616718557	0.6261480094695634	-0.02307402964701423	0.36117709764745615	0.6441117807005281
163	2.76271186440678	0.2961323040010962	0.5448043955021122	0.4783923453100727	0.24553988626660458	0.5449545569755849	0.9024296725886624	0.22150604488834053	0.6178293456470324	1.3323832403571463	0.25815293334117506	0.45530850955204677	1.3467452333224508	0.30652695023008425	0.4756349312055715	1.3346539473952377	0.17747082398445324	0.6933012719163671	1.393581071174286	0.12469677503587615	0.4583585989488577	0.46298965061394937	0.06182598389405398	0.5108624974658459	0.8991271019679701	0.03708682238365347	0.5727836558028592	1.3315746085064055	0.1144517182534133	0.4042146556432444	1.330305269965487	0.061140019003789646	0.4067921675568711	1.3164572358327498	0.0379137158087632	0.5951508409495537	1.381355280674504	0.21790948548045438	0.5135467862677406	-0.01185779316679229	0.25164053656304036	0.47211121784936877	-0.24969732444203313	0.26635927980676555	0.4144392408235186	-0.13175546351076217	0.35642187608358583	0.5429902228492127	0.07327478534082583	0.37202150566511594	0.6106760388990541	0.34251841493294233	0.4306600342399952	0.4933698333829459	0.5465599887164747	0.4137389224067278	0.4709222807746941	0.663107266335635	0.4315070242962687	0.4611867090259334	0.6917237818656403	0.42742324311817276	0.5496393827786072	0.6916795007847222	0.06534638570534002	0.4873542945349784	0.059121911312531056	0.042320245277710625	0.4308052558538788	0.31562979449632705	0.020923537906582388	0.3646396312156574	0.5136719735098086	0.03775678816861919	0.36349262076453537	0.6082624597184277	0.030008200466345662	0.31265502940791146	0.6261077954431451	-0.02291713007677001	0.3599054282675576	0.6430045515645963
164	2.7796610169491527	0.29611713193861766	0.5448290809307841	0.4784169654068826	0.2455636798111887	0.5448998592944437	0.9024359675765625	0.22136822697204628	0.6178400075671271	1.3323651751141268	0.25811013860386434	0.45535234069235203	1.3468497585271761	0.3064903679326024	0.4756680774352542	1.3346781598117423	0.17747068075755393	0.6933112723152131	1.3936050225832153	0.12468933052383803	0.45872448577133795	0.4635426967981955	0.06178553560739917	0.5106598216048382	0.8988302874229377	0.03750900435165308	0.5688556660366166	1.3307148128812736	0.113977143907996	0.40426983284422313	1.3325384109660443	0.061131342107840735	0.40683046723857474	1.316556238348763	0.03808567187656527	0.5933611516546131	1.3805969514187417	0.21788917326523527	0.5135841802222787	-0.011830931714306261	0.25165743018759756	0.47206691312079896	-0.24968213359384384	0.2664984105140186	0.4131753076390876	-0.1328916615585304	0.3562360521282231	0.5432639072315159	0.07331600408343364	0.37178915648284777	0.6107294992253138	0.3425842371131145	0.43260670715550675	0.4903530258863592	0.546481381760137	0.413550382587347	0.4704873979660216	0.6627726087478363	0.43133532747058356	0.4611558012818845	0.6926946380915773	0.42938723461928113	0.5463896649028656	0.6912272241654438	0.06539646534672766	0.4873450994208663	0.058592537451232156	0.04230018929176338	0.43083519536512593	0.31562460735841413	0.021107782595782606	0.3643934326025947	0.5136724589913073	0.03767429153161933	0.3635766294910059	0.6085800302968795	0.030005644240461878	0.31280494646421597	0.6261301018451801	-0.022999111044300167	0.35991328639449743	0.6425905479776597
165	2.796610169491525	0.29606729227339895	0.5448678564331494	0.4784376553763691	0.24560321758602247	0.5447482023079058	0.9024431833807053	0.22127284095292363	0.6178331294246991	1.3323366418855316	0.25797905683501104	0.45526977643938904	1.3472523345149359	0.3063629934229235	0.4770615082934664	1.3354359087866685	0.17745841285040545	0.6933221803366731	1.3936499604807868	0.12467385776001282	0.45924064193932373	0.46509731314798985	0.06159681419754833	0.5109717597781409	0.901023589909988	0.03782718049897106	0.5671416518219817	1.3300667279830596	0.11424659582625857	0.40406911272568	1.332534334075492	0.06073050544189264	0.40650172666987006	1.3165953020803314	0.038134885425454075	0.593240354948986	1.3807331377180236	0.21775903165187993	0.5137473883929178	-0.011831009014229685	0.25167358914891236	0.47201352760941084	-0.24932065025087377	0.26643811159179537	0.41398235086480967	-0.13336318108233014	0.35623052442599124	0.5432575566204774	0.0733238506722663	0.37157972363563385	0.6108061776289099	0.34295760641891104	0.4352735798443736	0.4863435634758884	0.5463961335103967	0.413299936463414	0.46790267643349504	0.6607976613166282	0.4312785365883166	0.46115161265701154	0.6928776813462972	0.43017180168135216	0.5450007787447768	0.6902920342155834	0.06539904548017426	0.487337084875171	0.05857615400720867	0.04227149328877587	0.4308524623760191	0.31562817524943465	0.021086328571496196	0.3644133738600517	0.5136907131769686	0.037648163682642066	0.3622707389176736	0.6090024129764866	0.02997785386065986	0.3130738163218721	0.6262080379969266	-0.023117519676539945	0.3601702093425502	0.6425751739542127
